<svg xmlns="http://www.w3.org/2000/svg" width="60" height="60" viewBox="0 0 60 60">
    <g fill="none" fill-rule="evenodd">
        <rect width="60" height="60" fill="#FAFAFA" rx="2" />
        <g fill-rule="nonzero">
            <path fill="#FFF"
                d="M37.735 19.976c0-9.79-7.968-17.759-17.759-17.759-9.79 0-17.759 7.969-17.759 17.76 0 9.79 7.968 17.758 17.76 17.758 9.79 0 17.758-7.968 17.758-17.759z"
                transform="translate(10 10)" />
            <path fill="#FFF"
                d="M32.991 19.976c0-7.178-5.843-13.015-13.015-13.015-5.435 0-10.1 3.35-12.047 8.087h4.184c.612 0 1.112.493 1.112 1.112 0 .612-.493 1.112-1.112 1.112H7.244c-.164.79-.256 1.605-.276 2.441h3.046c.612 0 1.112.494 1.112 1.112 0 .619-.493 1.112-1.112 1.112H7.106c.941 6.257 6.356 11.074 12.877 11.074 7.172-.02 13.008-5.856 13.008-13.035z"
                transform="translate(10 10)" />
            <path fill="#0079B8"
                d="M19.976 0C8.956 0 0 8.955 0 19.976c0 11.021 8.955 19.977 19.976 19.977 11.021 0 19.977-8.956 19.977-19.977C39.953 8.956 30.997 0 19.976 0zM2.217 19.976c0-9.79 7.969-17.759 17.76-17.759 9.79 0 17.758 7.969 17.758 17.76 0 9.79-7.968 17.758-17.759 17.758-9.79 0-17.759-7.968-17.759-17.759z"
                transform="translate(10 10)" />
            <path fill="#05AFC2"
                d="M19.976 4.73c-8.402 0-15.245 6.844-15.245 15.246 0 8.403 6.843 15.246 15.245 15.246 8.403 0 15.246-6.843 15.246-15.246 0-8.402-6.843-15.245-15.246-15.245zM7.1 21.918H10c.612 0 1.112-.493 1.112-1.112 0-.618-.493-1.112-1.112-1.112H6.968c.013-.835.112-1.651.276-2.44h4.87c.611 0 1.111-.494 1.111-1.113 0-.612-.493-1.112-1.112-1.112H7.935c1.941-4.744 6.606-8.086 12.041-8.086 7.179 0 13.015 5.843 13.015 13.015 0 7.172-5.836 13.034-13.015 13.034-6.52 0-11.929-4.81-12.876-11.074z"
                transform="translate(10 10)" />
            <path fill="#0079B8"
                d="M19.976 13.68c1.408 0 2.553 1.15 2.553 2.552 0 .612.494 1.112 1.112 1.112.612 0 1.112-.493 1.112-1.112 0-2.25-1.566-4.138-3.665-4.638v-.316c0-.612-.493-1.112-1.112-1.112-.618 0-1.112.493-1.112 1.112v.316c-2.099.5-3.665 2.388-3.665 4.638 0 2.83 2.336 4.883 4.777 4.777 1.408 0 2.553 1.152 2.553 2.553 0 1.402-1.151 2.553-2.553 2.553-1.401 0-2.553-1.151-2.553-2.553 0-.612-.493-1.112-1.112-1.112-.612 0-1.112.494-1.112 1.112 0 2.25 1.566 4.139 3.665 4.639v.487c0 .612.494 1.112 1.112 1.112.612 0 1.112-.494 1.112-1.112V28.2c2.1-.507 3.665-2.388 3.665-4.639 0-1.276-.493-2.48-1.401-3.375-.908-.902-2.1-1.395-3.376-1.395-1.408 0-2.553-1.152-2.553-2.553 0-1.402 1.145-2.56 2.553-2.56z"
                transform="translate(10 10)" />
        </g>
    </g>
</svg>